<mxfile host="Electron" agent="Mozilla/5.0 (Windows NT 10.0; Win64; x64) AppleWebKit/537.36 (KHTML, like Gecko) draw.io/27.0.5 Chrome/134.0.6998.205 Electron/35.3.0 Safari/537.36" version="27.0.5">
  <diagram name="Page-1" id="Pl0_Uvt7atssO6yKg841">
    <mxGraphModel dx="1281" dy="634" grid="1" gridSize="10" guides="1" tooltips="1" connect="1" arrows="1" fold="1" page="1" pageScale="1" pageWidth="827" pageHeight="1169" math="0" shadow="0">
      <root>
        <mxCell id="0" />
        <mxCell id="1" parent="0" />
        <mxCell id="MF_b644RHl_SKY77Qpp9-1" value="Originator" style="swimlane;fontStyle=1;align=center;verticalAlign=top;childLayout=stackLayout;horizontal=1;startSize=34.666666666666664;horizontalStack=0;resizeParent=1;resizeParentMax=0;resizeLast=0;collapsible=0;marginBottom=0;" vertex="1" parent="1">
          <mxGeometry x="20" y="262" width="332" height="217.66666666666666" as="geometry" />
        </mxCell>
        <mxCell id="MF_b644RHl_SKY77Qpp9-2" value="-state: UserPreferences" style="text;strokeColor=none;fillColor=none;align=left;verticalAlign=top;spacingLeft=4;spacingRight=4;overflow=hidden;rotatable=0;points=[[0,0.5],[1,0.5]];portConstraint=eastwest;" vertex="1" parent="MF_b644RHl_SKY77Qpp9-1">
          <mxGeometry y="34.666666666666664" width="332" height="35" as="geometry" />
        </mxCell>
        <mxCell id="MF_b644RHl_SKY77Qpp9-3" style="line;strokeWidth=1;fillColor=none;align=left;verticalAlign=middle;spacingTop=-1;spacingLeft=3;spacingRight=3;rotatable=0;labelPosition=right;points=[];portConstraint=eastwest;strokeColor=inherit;" vertex="1" parent="MF_b644RHl_SKY77Qpp9-1">
          <mxGeometry y="69.66666666666666" width="332" height="8" as="geometry" />
        </mxCell>
        <mxCell id="MF_b644RHl_SKY77Qpp9-4" value="+saveToMemento() : : Memento" style="text;strokeColor=none;fillColor=none;align=left;verticalAlign=top;spacingLeft=4;spacingRight=4;overflow=hidden;rotatable=0;points=[[0,0.5],[1,0.5]];portConstraint=eastwest;" vertex="1" parent="MF_b644RHl_SKY77Qpp9-1">
          <mxGeometry y="77.66666666666666" width="332" height="35" as="geometry" />
        </mxCell>
        <mxCell id="MF_b644RHl_SKY77Qpp9-5" value="+restoreFromMemento(Memento)" style="text;strokeColor=none;fillColor=none;align=left;verticalAlign=top;spacingLeft=4;spacingRight=4;overflow=hidden;rotatable=0;points=[[0,0.5],[1,0.5]];portConstraint=eastwest;" vertex="1" parent="MF_b644RHl_SKY77Qpp9-1">
          <mxGeometry y="112.66666666666666" width="332" height="35" as="geometry" />
        </mxCell>
        <mxCell id="MF_b644RHl_SKY77Qpp9-6" value="+setPreferences(UserPreferences)" style="text;strokeColor=none;fillColor=none;align=left;verticalAlign=top;spacingLeft=4;spacingRight=4;overflow=hidden;rotatable=0;points=[[0,0.5],[1,0.5]];portConstraint=eastwest;" vertex="1" parent="MF_b644RHl_SKY77Qpp9-1">
          <mxGeometry y="147.66666666666666" width="332" height="35" as="geometry" />
        </mxCell>
        <mxCell id="MF_b644RHl_SKY77Qpp9-7" value="+getPreferences() : : UserPreferences" style="text;strokeColor=none;fillColor=none;align=left;verticalAlign=top;spacingLeft=4;spacingRight=4;overflow=hidden;rotatable=0;points=[[0,0.5],[1,0.5]];portConstraint=eastwest;" vertex="1" parent="MF_b644RHl_SKY77Qpp9-1">
          <mxGeometry y="182.66666666666666" width="332" height="35" as="geometry" />
        </mxCell>
        <mxCell id="MF_b644RHl_SKY77Qpp9-8" value="Memento" style="swimlane;fontStyle=1;align=center;verticalAlign=top;childLayout=stackLayout;horizontal=1;startSize=45.333333333333336;horizontalStack=0;resizeParent=1;resizeParentMax=0;resizeLast=0;collapsible=0;marginBottom=0;" vertex="1" parent="1">
          <mxGeometry x="229" y="550" width="282" height="143.33333333333334" as="geometry" />
        </mxCell>
        <mxCell id="MF_b644RHl_SKY77Qpp9-9" value="-state: UserPreferences" style="text;strokeColor=none;fillColor=none;align=left;verticalAlign=top;spacingLeft=4;spacingRight=4;overflow=hidden;rotatable=0;points=[[0,0.5],[1,0.5]];portConstraint=eastwest;" vertex="1" parent="MF_b644RHl_SKY77Qpp9-8">
          <mxGeometry y="45.333333333333336" width="282" height="45" as="geometry" />
        </mxCell>
        <mxCell id="MF_b644RHl_SKY77Qpp9-10" style="line;strokeWidth=1;fillColor=none;align=left;verticalAlign=middle;spacingTop=-1;spacingLeft=3;spacingRight=3;rotatable=0;labelPosition=right;points=[];portConstraint=eastwest;strokeColor=inherit;" vertex="1" parent="MF_b644RHl_SKY77Qpp9-8">
          <mxGeometry y="90.33333333333334" width="282" height="8" as="geometry" />
        </mxCell>
        <mxCell id="MF_b644RHl_SKY77Qpp9-11" value="+getState() : : UserPreferences" style="text;strokeColor=none;fillColor=none;align=left;verticalAlign=top;spacingLeft=4;spacingRight=4;overflow=hidden;rotatable=0;points=[[0,0.5],[1,0.5]];portConstraint=eastwest;" vertex="1" parent="MF_b644RHl_SKY77Qpp9-8">
          <mxGeometry y="98.33333333333334" width="282" height="45" as="geometry" />
        </mxCell>
        <mxCell id="MF_b644RHl_SKY77Qpp9-12" value="Caretaker" style="swimlane;fontStyle=1;align=center;verticalAlign=top;childLayout=stackLayout;horizontal=1;startSize=40;horizontalStack=0;resizeParent=1;resizeParentMax=0;resizeLast=0;collapsible=0;marginBottom=0;" vertex="1" parent="1">
          <mxGeometry x="402" y="286" width="301" height="168" as="geometry" />
        </mxCell>
        <mxCell id="MF_b644RHl_SKY77Qpp9-13" value="-mementos: List&lt;Memento&gt;" style="text;strokeColor=none;fillColor=none;align=left;verticalAlign=top;spacingLeft=4;spacingRight=4;overflow=hidden;rotatable=0;points=[[0,0.5],[1,0.5]];portConstraint=eastwest;" vertex="1" parent="MF_b644RHl_SKY77Qpp9-12">
          <mxGeometry y="40" width="301" height="40" as="geometry" />
        </mxCell>
        <mxCell id="MF_b644RHl_SKY77Qpp9-14" style="line;strokeWidth=1;fillColor=none;align=left;verticalAlign=middle;spacingTop=-1;spacingLeft=3;spacingRight=3;rotatable=0;labelPosition=right;points=[];portConstraint=eastwest;strokeColor=inherit;" vertex="1" parent="MF_b644RHl_SKY77Qpp9-12">
          <mxGeometry y="80" width="301" height="8" as="geometry" />
        </mxCell>
        <mxCell id="MF_b644RHl_SKY77Qpp9-15" value="+addMemento(Memento)" style="text;strokeColor=none;fillColor=none;align=left;verticalAlign=top;spacingLeft=4;spacingRight=4;overflow=hidden;rotatable=0;points=[[0,0.5],[1,0.5]];portConstraint=eastwest;" vertex="1" parent="MF_b644RHl_SKY77Qpp9-12">
          <mxGeometry y="88" width="301" height="40" as="geometry" />
        </mxCell>
        <mxCell id="MF_b644RHl_SKY77Qpp9-16" value="+getMemento(index) : : Memento" style="text;strokeColor=none;fillColor=none;align=left;verticalAlign=top;spacingLeft=4;spacingRight=4;overflow=hidden;rotatable=0;points=[[0,0.5],[1,0.5]];portConstraint=eastwest;" vertex="1" parent="MF_b644RHl_SKY77Qpp9-12">
          <mxGeometry y="128" width="301" height="40" as="geometry" />
        </mxCell>
        <mxCell id="MF_b644RHl_SKY77Qpp9-17" value="MobileApp" style="swimlane;fontStyle=1;align=center;verticalAlign=top;childLayout=stackLayout;horizontal=1;startSize=36.8;horizontalStack=0;resizeParent=1;resizeParentMax=0;resizeLast=0;collapsible=0;marginBottom=0;" vertex="1" parent="1">
          <mxGeometry x="258" y="20" width="222" height="192.8" as="geometry" />
        </mxCell>
        <mxCell id="MF_b644RHl_SKY77Qpp9-18" value="-originator: Originator" style="text;strokeColor=none;fillColor=none;align=left;verticalAlign=top;spacingLeft=4;spacingRight=4;overflow=hidden;rotatable=0;points=[[0,0.5],[1,0.5]];portConstraint=eastwest;" vertex="1" parent="MF_b644RHl_SKY77Qpp9-17">
          <mxGeometry y="36.8" width="222" height="37" as="geometry" />
        </mxCell>
        <mxCell id="MF_b644RHl_SKY77Qpp9-19" value="-caretaker: Caretaker" style="text;strokeColor=none;fillColor=none;align=left;verticalAlign=top;spacingLeft=4;spacingRight=4;overflow=hidden;rotatable=0;points=[[0,0.5],[1,0.5]];portConstraint=eastwest;" vertex="1" parent="MF_b644RHl_SKY77Qpp9-17">
          <mxGeometry y="73.8" width="222" height="37" as="geometry" />
        </mxCell>
        <mxCell id="MF_b644RHl_SKY77Qpp9-20" style="line;strokeWidth=1;fillColor=none;align=left;verticalAlign=middle;spacingTop=-1;spacingLeft=3;spacingRight=3;rotatable=0;labelPosition=right;points=[];portConstraint=eastwest;strokeColor=inherit;" vertex="1" parent="MF_b644RHl_SKY77Qpp9-17">
          <mxGeometry y="110.8" width="222" height="8" as="geometry" />
        </mxCell>
        <mxCell id="MF_b644RHl_SKY77Qpp9-21" value="+saveAsFavorite()" style="text;strokeColor=none;fillColor=none;align=left;verticalAlign=top;spacingLeft=4;spacingRight=4;overflow=hidden;rotatable=0;points=[[0,0.5],[1,0.5]];portConstraint=eastwest;" vertex="1" parent="MF_b644RHl_SKY77Qpp9-17">
          <mxGeometry y="118.8" width="222" height="37" as="geometry" />
        </mxCell>
        <mxCell id="MF_b644RHl_SKY77Qpp9-22" value="+loadSavedRoute()" style="text;strokeColor=none;fillColor=none;align=left;verticalAlign=top;spacingLeft=4;spacingRight=4;overflow=hidden;rotatable=0;points=[[0,0.5],[1,0.5]];portConstraint=eastwest;" vertex="1" parent="MF_b644RHl_SKY77Qpp9-17">
          <mxGeometry y="155.8" width="222" height="37" as="geometry" />
        </mxCell>
        <mxCell id="MF_b644RHl_SKY77Qpp9-23" value="creates" style="curved=1;startArrow=none;endArrow=open;endSize=12;exitX=0.5;exitY=1;entryX=0.07;entryY=0;rounded=0;" edge="1" parent="1" source="MF_b644RHl_SKY77Qpp9-1" target="MF_b644RHl_SKY77Qpp9-8">
          <mxGeometry relative="1" as="geometry">
            <Array as="points">
              <mxPoint x="186" y="514" />
            </Array>
          </mxGeometry>
        </mxCell>
        <mxCell id="MF_b644RHl_SKY77Qpp9-24" value="stores" style="curved=1;startArrow=diamondThin;startSize=14;startFill=0;endArrow=open;endSize=12;exitX=0.5;exitY=1;entryX=0.93;entryY=0;rounded=0;" edge="1" parent="1" source="MF_b644RHl_SKY77Qpp9-12" target="MF_b644RHl_SKY77Qpp9-8">
          <mxGeometry relative="1" as="geometry">
            <Array as="points">
              <mxPoint x="553" y="514" />
            </Array>
          </mxGeometry>
        </mxCell>
        <mxCell id="MF_b644RHl_SKY77Qpp9-25" value="" style="curved=1;startArrow=none;endArrow=open;endSize=12;exitX=0;exitY=0.88;entryX=0.5;entryY=0;rounded=0;" edge="1" parent="1" source="MF_b644RHl_SKY77Qpp9-17" target="MF_b644RHl_SKY77Qpp9-1">
          <mxGeometry relative="1" as="geometry">
            <Array as="points">
              <mxPoint x="186" y="237" />
            </Array>
          </mxGeometry>
        </mxCell>
        <mxCell id="MF_b644RHl_SKY77Qpp9-26" value="" style="curved=1;startArrow=none;endArrow=open;endSize=12;exitX=1;exitY=0.88;entryX=0.5;entryY=0;rounded=0;" edge="1" parent="1" source="MF_b644RHl_SKY77Qpp9-17" target="MF_b644RHl_SKY77Qpp9-12">
          <mxGeometry relative="1" as="geometry">
            <Array as="points">
              <mxPoint x="553" y="237" />
            </Array>
          </mxGeometry>
        </mxCell>
      </root>
    </mxGraphModel>
  </diagram>
</mxfile>
